<svg xmlns="http://www.w3.org/2000/svg" viewBox="0 0 320 270" role="img" aria-label="Korean letters">
  <defs>
    <filter id="softShadow" x="-20%" y="-20%" width="140%" height="150%">
      <feDropShadow dx="0" dy="6" stdDeviation="4" flood-color="#000000" flood-opacity=".12"/>
    </filter>
    <linearGradient id="redFace" x1="40" x2="128" y1="84" y2="170" gradientUnits="userSpaceOnUse">
      <stop stop-color="#ff8a64"/>
      <stop offset="1" stop-color="#f0442f"/>
    </linearGradient>
    <linearGradient id="yellowFace" x1="143" x2="204" y1="21" y2="105" gradientUnits="userSpaceOnUse">
      <stop stop-color="#ffd43b"/>
      <stop offset="1" stop-color="#ffad00"/>
    </linearGradient>
    <linearGradient id="blueFace" x1="129" x2="206" y1="156" y2="235" gradientUnits="userSpaceOnUse">
      <stop stop-color="#55c8ff"/>
      <stop offset="1" stop-color="#2387d9"/>
    </linearGradient>
    <linearGradient id="greenFace" x1="216" x2="287" y1="101" y2="183" gradientUnits="userSpaceOnUse">
      <stop stop-color="#8adc62"/>
      <stop offset="1" stop-color="#39b853"/>
    </linearGradient>
  </defs>

  <rect width="320" height="270" rx="28" fill="#fbfbfa"/>
  <circle cx="160" cy="138" r="124" fill="#fff2d8"/>

  <path d="M70 37l5 11 12 2-9 8 2 12-10-6-11 6 3-12-9-8 12-2z" fill="#f96fa4"/>
  <path d="M247 38l8 14 16 2-11 12 3 16-15-7-14 8 2-17-12-11 16-3z" fill="#59c4ed"/>
  <path d="M52 211l6 12 14 2-10 10 2 14-13-6-12 7 2-15-11-9 15-3z" fill="#ffc400"/>
  <path d="M258 217l5 8 10 1-7 7 2 10-9-5-9 5 2-10-7-7 10-1z" fill="#a6d957"/>
  <circle cx="209" cy="80" r="4" fill="#ffb100"/>
  <circle cx="210" cy="132" r="5" fill="#316c41"/>
  <circle cx="152" cy="152" r="5" fill="#58c7ec"/>
  <circle cx="302" cy="216" r="4" fill="#67c6e9"/>
  <path d="M39 71l-8-11M53 63l-2-14M26 83l-13-4" stroke="#ff836b" stroke-width="4" stroke-linecap="round"/>
  <path d="M291 86l11-10M278 78l4-14M304 101l15-2" stroke="#ff8a50" stroke-width="4" stroke-linecap="round"/>

  <g filter="url(#softShadow)">
    <g transform="rotate(-10 81 132)">
      <path d="M28 99c-2-10 4-17 14-19l68-14c10-2 18 3 20 13l15 77c2 10-4 18-14 20l-25 5-11-55-54 11c-10 2-18-4-20-14z" fill="url(#redFace)"/>
      <path d="M35 94l70-14c7-1 12 2 14 9" fill="none" stroke="#ffb19a" stroke-width="5" stroke-linecap="round"/>
      <circle cx="86" cy="123" r="4" fill="#1e2930"/>
      <circle cx="108" cy="119" r="4" fill="#1e2930"/>
      <path d="M93 134c6 6 14 4 18-3" fill="none" stroke="#1e2930" stroke-width="4" stroke-linecap="round"/>
      <circle cx="78" cy="135" r="5" fill="#ff7f76" opacity=".9"/>
      <circle cx="120" cy="128" r="5" fill="#ff7f76" opacity=".9"/>
    </g>
    <path d="M37 128c-12 4-16 1-19-8M120 91c-6-13-4-19 4-25M132 176c8 11 15 13 23 6" fill="none" stroke="#20262c" stroke-width="5" stroke-linecap="round"/>
    <circle cx="18" cy="120" r="5" fill="#20262c"/>
    <circle cx="124" cy="66" r="5" fill="#20262c"/>
    <circle cx="155" cy="182" r="5" fill="#20262c"/>
  </g>

  <g filter="url(#softShadow)">
    <path d="M150 26c0-9 6-15 15-15h15c9 0 15 6 15 15v56h30c9 0 15 6 15 15v15c0 9-6 15-15 15h-77c-9 0-15-6-15-15V97c0-9 6-15 15-15h13z" fill="url(#yellowFace)"/>
    <path d="M158 27c0-5 3-8 8-8h14c5 0 8 3 8 8v63h38" fill="none" stroke="#ffe779" stroke-width="5" stroke-linecap="round"/>
    <circle cx="165" cy="91" r="4" fill="#1e2930"/>
    <circle cx="188" cy="91" r="4" fill="#1e2930"/>
    <path d="M171 103c5 5 13 5 18-1" fill="none" stroke="#1e2930" stroke-width="4" stroke-linecap="round"/>
    <circle cx="154" cy="103" r="5" fill="#ff8375" opacity=".85"/>
    <circle cx="202" cy="102" r="5" fill="#ff8375" opacity=".85"/>
    <path d="M132 71c-12-8-14-15-8-22M226 78c11-8 14-15 10-24" fill="none" stroke="#20262c" stroke-width="5" stroke-linecap="round"/>
    <circle cx="124" cy="49" r="5" fill="#20262c"/>
    <circle cx="236" cy="54" r="5" fill="#20262c"/>
  </g>

  <g filter="url(#softShadow)">
    <path d="M143 159h70c8 0 14 6 14 14v53c0 8-6 14-14 14h-70c-8 0-14-6-14-14v-53c0-8 6-14 14-14zm19 21v38h31v-38z" fill="url(#blueFace)"/>
    <path d="M143 168h66" stroke="#84d8ff" stroke-width="5" stroke-linecap="round"/>
    <circle cx="171" cy="212" r="4" fill="#1e2930"/>
    <circle cx="192" cy="212" r="4" fill="#1e2930"/>
    <path d="M176 224c4 4 11 4 16 0" fill="none" stroke="#1e2930" stroke-width="4" stroke-linecap="round"/>
    <circle cx="154" cy="219" r="5" fill="#ff887c" opacity=".85"/>
    <circle cx="208" cy="219" r="5" fill="#ff887c" opacity=".85"/>
    <path d="M144 237c-5 14-2 21 8 25M215 237c9 12 16 13 24 6M230 197c12 2 18-1 22-10" fill="none" stroke="#20262c" stroke-width="5" stroke-linecap="round"/>
    <circle cx="152" cy="262" r="5" fill="#20262c"/>
    <circle cx="239" cy="243" r="5" fill="#20262c"/>
    <circle cx="252" cy="187" r="5" fill="#20262c"/>
  </g>

  <g filter="url(#softShadow)">
    <path d="M244 103c37 0 60 22 60 55s-23 55-60 55-60-22-60-55 23-55 60-55zm0 32c-15 0-25 9-25 23s10 23 25 23 25-9 25-23-10-23-25-23z" fill="url(#greenFace)"/>
    <path d="M244 112c29 0 50 17 51 43" fill="none" stroke="#a6eb89" stroke-width="5" stroke-linecap="round"/>
    <circle cx="231" cy="165" r="4" fill="#1e2930"/>
    <circle cx="253" cy="165" r="4" fill="#1e2930"/>
    <path d="M235 176c6 5 14 5 20-1" fill="none" stroke="#1e2930" stroke-width="4" stroke-linecap="round"/>
    <circle cx="218" cy="176" r="5" fill="#ff8c86" opacity=".85"/>
    <circle cx="269" cy="175" r="5" fill="#ff8c86" opacity=".85"/>
    <path d="M192 157c-13 3-20-1-24-11M296 166c12 7 20 7 27-1" fill="none" stroke="#20262c" stroke-width="5" stroke-linecap="round"/>
    <circle cx="168" cy="146" r="5" fill="#20262c"/>
    <circle cx="323" cy="165" r="5" fill="#20262c"/>
  </g>
</svg>
