<svg xmlns="http://www.w3.org/2000/svg" viewBox="0 0 320 320" role="img" aria-label="Smiling globe">
  <defs>
    <filter id="softShadow" x="-20%" y="-20%" width="140%" height="145%">
      <feDropShadow dx="0" dy="7" stdDeviation="5" flood-color="#000000" flood-opacity=".13"/>
    </filter>
    <linearGradient id="ocean" x1="95" x2="214" y1="65" y2="245" gradientUnits="userSpaceOnUse">
      <stop stop-color="#48d2f3"/>
      <stop offset=".6" stop-color="#1aa8dc"/>
      <stop offset="1" stop-color="#0e7fc4"/>
    </linearGradient>
    <linearGradient id="land" x1="77" x2="230" y1="58" y2="206" gradientUnits="userSpaceOnUse">
      <stop stop-color="#c8f452"/>
      <stop offset="1" stop-color="#62c82a"/>
    </linearGradient>
    <linearGradient id="stand" x1="169" x2="262" y1="63" y2="274" gradientUnits="userSpaceOnUse">
      <stop stop-color="#ffd24d"/>
      <stop offset=".52" stop-color="#ffad22"/>
      <stop offset="1" stop-color="#f08a00"/>
    </linearGradient>
    <linearGradient id="blueCap" x1="125" x2="204" y1="48" y2="235" gradientUnits="userSpaceOnUse">
      <stop stop-color="#2fa0ef"/>
      <stop offset="1" stop-color="#0869bd"/>
    </linearGradient>
  </defs>

  <rect width="320" height="320" rx="30" fill="#fbfbfa"/>
  <ellipse cx="166" cy="272" rx="91" ry="18" fill="#efd2ad" opacity=".55"/>

  <path d="M219 55c60 26 86 103 59 171-24 61-79 96-141 90l5-16c53 5 101-25 122-80 24-61 2-130-51-153z" fill="url(#stand)" filter="url(#softShadow)"/>
  <path d="M223 62c51 28 72 95 48 154-20 50-61 79-109 82" fill="none" stroke="#ffcf5a" stroke-width="5" stroke-linecap="round" opacity=".75"/>
  <rect x="186" y="39" width="33" height="24" rx="8" transform="rotate(20 202.5 51)" fill="url(#blueCap)" filter="url(#softShadow)"/>
  <rect x="119" y="217" width="36" height="24" rx="8" transform="rotate(15 137 229)" fill="url(#blueCap)" filter="url(#softShadow)"/>

  <g filter="url(#softShadow)">
    <circle cx="152" cy="149" r="82" fill="url(#ocean)"/>
    <path d="M84 137c-11 31-2 65 22 86 28 24 73 29 109 7-16 22-39 36-66 37-45 1-84-35-87-82-1-18 3-34 12-48z" fill="#0879bd" opacity=".32"/>
    <path d="M87 77c32-24 78-25 112-2 17 12 29 29 35 48-6-11-16-18-31-21-44-9-93 14-116-25z" fill="#6de2ff" opacity=".42"/>

    <path d="M69 135c0-37 25-69 61-80 2 14-10 26-25 30-14 3-23 7-26 20-2 9 11 13 9 24-2 10-16 13-19 6z" fill="url(#land)"/>
    <path d="M89 142c7 5 15 11 20 21 7 14 17 19 13 31-3 9-11 4-18 13-6 8-1 21 8 31-27-15-45-43-47-75-1-12 1-22 5-32 5 6 10 7 19 11z" fill="url(#land)"/>
    <path d="M166 69c13 2 18 15 30 14 9-1 7-8 18-8 18 0 31 17 30 35-1 11-12 3-15 15-2 9 14 14 18 28 5 18-4 35-18 43-12 7-22 2-26-13-3-13-5-23-16-19-17 7-10 26-19 49-6 15-25 20-32 10-6-9 0-31-5-47-4-13-14-13-22-21-9-10-4-24 10-25 12-1 17-9 13-19-4-9 1-20 12-20 11 0 11-25 22-23z" fill="url(#land)"/>
    <path d="M126 94c-8 8-19 7-23 18-3 10 8 14 18 9 8-4 11 2 18-4 8-7 4-17-2-23-3-4-7-4-11 0z" fill="#b9ef4e"/>

    <circle cx="120" cy="138" r="9" fill="#1c2329"/>
    <circle cx="171" cy="146" r="9" fill="#1c2329"/>
    <circle cx="116" cy="132" r="4" fill="#fff"/>
    <circle cx="166" cy="140" r="4" fill="#fff"/>
    <path d="M134 151c10 9 24 10 36 1 0 15-9 27-22 27-12 0-21-11-23-25-1-4 5-6 9-3z" fill="#1c2329"/>
    <path d="M138 173c7-9 21-8 28 1-5 5-21 7-28-1z" fill="#ff596d"/>
    <ellipse cx="99" cy="151" rx="13" ry="9" fill="#ff7c93" opacity=".9"/>
    <ellipse cx="185" cy="161" rx="13" ry="9" fill="#ff7c93" opacity=".9"/>
  </g>

  <path d="M134 243h49l7 41h-63z" fill="url(#stand)" filter="url(#softShadow)"/>
  <path d="M129 242h58" stroke="#d98100" stroke-width="5" stroke-linecap="round" opacity=".45"/>
  <rect x="85" y="269" width="143" height="28" rx="14" fill="url(#stand)" filter="url(#softShadow)"/>
  <path d="M96 280h104" stroke="#ffd866" stroke-width="5" stroke-linecap="round" opacity=".85"/>

  <path d="M63 74l-15-5M74 62L63 49M88 54l-5-16" stroke="#ff8c1f" stroke-width="8" stroke-linecap="round"/>
  <path d="M246 223l13 4M242 236l10 11" stroke="#f864a1" stroke-width="7" stroke-linecap="round"/>
  <path d="M65 247l-10 6M79 253l-6 12" stroke="#45bce8" stroke-width="7" stroke-linecap="round"/>
  <path d="M43 117l5 12 13 1-10 9 3 13-12-7-11 7 2-13-10-9 13-2z" fill="#ffcb31" stroke="#ffbc22" stroke-width="3"/>
  <path d="M55 214l7 15 16 2-12 11 3 16-15-8-14 8 3-17-12-10 16-2z" fill="#ff78b3" stroke="#f65c9c" stroke-width="3"/>
  <path d="M278 168l6 12 14 2-10 9 2 14-12-7-12 7 2-14-10-9 14-2z" fill="#79d83f" stroke="#66c72d" stroke-width="3"/>
  <circle cx="268" cy="82" r="9" fill="#f96ca5"/>
  <circle cx="285" cy="117" r="8" fill="#74d039"/>
  <circle cx="236" cy="247" r="8" fill="#3fb7e8"/>
  <circle cx="50" cy="176" r="8" fill="#ff70a9"/>
</svg>
